<svg width="588" height="311" viewBox="0 0 588 311" fill="none" xmlns="http://www.w3.org/2000/svg">
<g clip-path="url(#clip0_76737_17520)">
<rect width="588" height="311" rx="24" fill="#FEFCE8"/>
<path d="M588 27L-18.0306 27" stroke="#FEF3C7" stroke-width="2"/>
<path d="M588 59L-18.0306 59" stroke="#FEF3C7" stroke-width="2"/>
<path d="M588 123L-18.0306 123" stroke="#FEF3C7" stroke-width="2"/>
<path d="M588 187L-18.0306 187" stroke="#FEF3C7" stroke-width="2"/>
<path d="M588 251L-18.0306 251" stroke="#FEF3C7" stroke-width="2"/>
<path d="M588 155L-18.0306 155" stroke="#FEF3C7" stroke-width="2"/>
<path d="M588 283L-18.0306 283" stroke="#FEF3C7" stroke-width="2"/>
<path d="M588 91L-18.0306 91" stroke="#FEF3C7" stroke-width="2"/>
<path d="M588 219L-18.0306 219" stroke="#FEF3C7" stroke-width="2"/>
<path d="M272.87 30.416C272.785 30.2133 272.699 29.9787 272.614 29.712C272.529 29.4347 272.417 29.088 272.278 28.672V38.416H270.374V26.88H273.286L276.118 34.048L278.838 26.88H281.782V38.416H279.846V28.672C279.729 29.152 279.627 29.5147 279.542 29.76C279.457 29.9947 279.377 30.2133 279.302 30.416L276.886 36.496H275.254L272.87 30.416ZM289.75 33.216V32.832C289.75 32.5973 289.713 32.3733 289.638 32.16C289.574 31.9467 289.462 31.76 289.302 31.6C289.142 31.44 288.939 31.312 288.694 31.216C288.449 31.12 288.15 31.072 287.798 31.072C287.126 31.072 286.619 31.248 286.278 31.6C285.947 31.952 285.782 32.3787 285.782 32.88V33.216H289.75ZM291.462 37.6C291.035 37.888 290.534 38.1173 289.958 38.288C289.382 38.4587 288.678 38.544 287.846 38.544C287.334 38.544 286.838 38.4747 286.358 38.336C285.878 38.208 285.446 37.9893 285.062 37.68C284.689 37.36 284.385 36.9387 284.15 36.416C283.926 35.8827 283.814 35.2213 283.814 34.432V33.52C283.814 32.8053 283.915 32.192 284.118 31.68C284.331 31.1573 284.619 30.7307 284.982 30.4C285.345 30.0587 285.766 29.808 286.246 29.648C286.737 29.488 287.265 29.408 287.83 29.408C288.385 29.408 288.897 29.488 289.366 29.648C289.846 29.808 290.257 30.0533 290.598 30.384C290.939 30.704 291.206 31.1093 291.398 31.6C291.59 32.08 291.686 32.64 291.686 33.28V34.736H285.782C285.782 35.44 285.969 35.9733 286.342 36.336C286.715 36.688 287.254 36.864 287.958 36.864C288.481 36.864 288.945 36.8107 289.35 36.704C289.755 36.5867 290.182 36.4 290.63 36.144L291.462 37.6ZM303.031 29.408C303.436 29.408 303.82 29.4773 304.183 29.616C304.556 29.7547 304.881 29.9627 305.159 30.24C305.436 30.5173 305.655 30.864 305.815 31.28C305.985 31.696 306.071 32.1813 306.071 32.736V38.416H304.055V33.152C304.055 32.7573 304.012 32.432 303.927 32.176C303.841 31.92 303.724 31.7227 303.575 31.584C303.425 31.4347 303.255 31.3333 303.063 31.28C302.871 31.2267 302.668 31.2 302.455 31.2C302.263 31.2 302.065 31.232 301.863 31.296C301.671 31.3493 301.5 31.4507 301.351 31.6C301.201 31.7387 301.079 31.9307 300.983 32.176C300.887 32.4213 300.839 32.7253 300.839 33.088V38.416H298.823V33.12C298.823 32.7467 298.78 32.4373 298.695 32.192C298.609 31.9467 298.492 31.7493 298.343 31.6C298.204 31.4507 298.039 31.3493 297.847 31.296C297.655 31.232 297.447 31.2 297.223 31.2C296.743 31.2 296.353 31.3493 296.055 31.648C295.756 31.9467 295.607 32.4 295.607 33.008V38.416H293.591V29.6H295.495V30.72H295.527C295.74 30.3147 296.049 29.9947 296.455 29.76C296.871 29.5253 297.367 29.408 297.943 29.408C298.487 29.408 298.972 29.5307 299.399 29.776C299.836 30.0213 300.135 30.3467 300.295 30.752C300.604 30.304 300.967 29.968 301.383 29.744C301.809 29.52 302.359 29.408 303.031 29.408ZM312.052 36.784C312.35 36.784 312.628 36.7413 312.884 36.656C313.14 36.5707 313.358 36.4373 313.54 36.256C313.732 36.0747 313.881 35.8347 313.988 35.536C314.094 35.2373 314.148 34.88 314.148 34.464V33.488C314.148 32.6453 313.956 32.048 313.572 31.696C313.198 31.344 312.692 31.168 312.052 31.168C311.412 31.168 310.9 31.344 310.516 31.696C310.142 32.048 309.956 32.6453 309.956 33.488V34.464C309.956 34.88 310.009 35.2373 310.116 35.536C310.222 35.8347 310.366 36.0747 310.548 36.256C310.74 36.4373 310.964 36.5707 311.22 36.656C311.476 36.7413 311.753 36.784 312.052 36.784ZM312.052 38.544C311.422 38.544 310.852 38.4533 310.34 38.272C309.838 38.0907 309.406 37.8293 309.044 37.488C308.692 37.1467 308.414 36.7253 308.212 36.224C308.02 35.712 307.924 35.136 307.924 34.496V33.456C307.924 32.8053 308.02 32.2293 308.212 31.728C308.414 31.2267 308.692 30.8053 309.044 30.464C309.406 30.1227 309.838 29.8613 310.34 29.68C310.852 29.4987 311.422 29.408 312.052 29.408C312.67 29.408 313.236 29.4987 313.748 29.68C314.26 29.8613 314.692 30.1227 315.044 30.464C315.406 30.8053 315.684 31.2267 315.876 31.728C316.078 32.2293 316.18 32.8053 316.18 33.456V34.496C316.18 35.136 316.078 35.712 315.876 36.224C315.684 36.7253 315.406 37.1467 315.044 37.488C314.692 37.8293 314.26 38.0907 313.748 38.272C313.236 38.4533 312.67 38.544 312.052 38.544Z" fill="#92400E"/>
</g>
<defs>
<clipPath id="clip0_76737_17520">
<rect width="588" height="311" fill="white"/>
</clipPath>
</defs>
</svg>
